<?xml version="1.0" standalone="no"?>
<!DOCTYPE svg PUBLIC "-//W3C//DTD SVG 20010904//EN"
 "http://www.w3.org/TR/2001/REC-SVG-20010904/DTD/svg10.dtd">
<svg version="1.0" xmlns="http://www.w3.org/2000/svg"
 width="512.000000pt" height="512.000000pt" viewBox="0 0 512.000000 512.000000"
 preserveAspectRatio="xMidYMid meet">
<metadata>
Created by potrace 1.14, written by Peter Selinger 2001-2017
</metadata>
<g transform="translate(0.000000,512.000000) scale(0.100000,-0.100000)"
fill="#000000" stroke="none">
<path d="M1302 4909 c-50 -6 -73 -26 -78 -66 -6 -44 -7 -484 -1 -489 3 -3 1
-19 -3 -35 -5 -17 -5 -31 1 -35 5 -3 7 -9 5 -13 -8 -12 -8 -7 -1 -1101 12
-2157 16 -2726 18 -2755 5 -53 20 -55 357 -50 355 6 399 9 419 30 14 14 16
129 15 1068 -2 969 1 1074 21 987 2 -8 36 -109 75 -225 39 -115 89 -266 111
-335 23 -69 50 -150 61 -180 11 -30 22 -62 24 -70 4 -18 342 -1029 351 -1050
3 -8 7 -19 9 -25 1 -5 16 -50 33 -98 58 -165 82 -201 142 -212 13 -3 143 -8
289 -11 482 -10 469 -12 491 54 18 54 19 100 24 1287 9 1742 15 3099 16 3110
2 38 -12 109 -23 116 -7 5 -26 9 -43 10 -25 1 -415 1 -651 -1 -122 0 -108 138
-110 -1137 -2 -1134 -3 -1193 -11 -1158 -2 11 -56 175 -120 365 -63 190 -116
350 -117 355 -2 6 -6 17 -9 25 -7 18 -200 601 -204 615 -1 6 -14 44 -28 85
-15 41 -28 82 -30 90 -11 42 -230 683 -256 751 -19 50 -39 84 -52 91 -23 13
-639 19 -725 7z"/>
</g>
</svg>
